<svg id="Capa_1" enable-background="new 0 0 512 512" height="512" viewBox="0 0 512 512" width="512" xmlns="http://www.w3.org/2000/svg"><g><g><path d="m512 214.647-256-169.979-256 169.979 256 200.886z" fill="#fee97d"/><path d="m256 75.573 225.095 159.595 30.905-20.521-256-169.979-256 169.979 28.003 18.594z" fill="#f4da6e"/><path d="m425.98 405.891h-339.96v-374.986c0-17.068 13.837-30.905 30.906-30.905h278.149c17.069 0 30.905 13.837 30.905 30.905z" fill="#f9f7f8"/><path d="m395.074 0h-30.905c17.069 0 30.905 13.837 30.905 30.905v374.986h30.905v-374.986c.001-17.068-13.836-30.905-30.905-30.905z" fill="#e5e1e5"/><path d="m481.095 512h-450.19c-17.068 0-30.905-13.837-30.905-30.905v-266.448l256 169.98 256-169.98v266.447c0 17.069-13.837 30.906-30.905 30.906z" fill="#fffbe5"/><g><path d="m481.095 235.168v245.926c0 17.069-13.837 30.905-30.905 30.905h30.905c17.068.001 30.905-13.836 30.905-30.904v-266.448z" fill="#fceca9"/></g><path d="m512 446.438-221.809-147.278c-20.718-13.757-47.663-13.757-68.382 0l-221.809 147.278v34.656c0 17.069 13.837 30.906 30.905 30.906h450.189c17.069 0 30.906-13.837 30.906-30.905z" fill="#fee97d"/><path d="m512 481.095v-34.656l-30.905-20.521v55.177c0 17.069-13.837 30.905-30.905 30.905h30.905c17.068 0 30.905-13.837 30.905-30.905z" fill="#f4da6e"/></g><g><g fill="#00516a"><path d="m163.321 164.342 17.368 25.151c2.197 3.17 5.888 4.508 9.404 3.408 3.572-1.117 5.88-4.415 5.88-8.403v-45.028c0-4.267-3.459-7.726-7.726-7.726s-7.726 3.459-7.726 7.726v22.586l-18.569-26.889c-1.921-2.782-5.427-3.991-8.657-2.986-3.228 1.007-5.427 3.995-5.427 7.376v46.511c0 4.267 3.459 7.726 7.726 7.726s7.726-3.459 7.726-7.726v-21.726z"/><path d="m212.797 193.581h19.455c4.267 0 7.726-3.459 7.726-7.726s-3.459-7.726-7.726-7.726h-11.728v-7.633h10.294c4.267 0 7.726-3.459 7.726-7.726s-3.459-7.726-7.726-7.726h-10.294v-7.633h11.728c4.267 0 7.726-3.459 7.726-7.726s-3.459-7.726-7.726-7.726h-19.455c-4.267 0-7.726 3.459-7.726 7.726v46.172c-.001 4.265 3.459 7.724 7.726 7.724z"/><path d="m363.864 177.326c1.295-7.255-1.902-16.697-14.761-21.44-5.378-1.983-10.407-4.136-12.295-4.959-1.148-1.329.489-2.854 2.064-3.328 5.544-1.669 10.87 2.458 11.076 2.62 3.267 2.696 8.101 2.261 10.831-.988 2.745-3.266 2.323-8.14-.943-10.886-4.293-3.609-14.476-8.836-25.422-5.542-7.149 2.154-12.211 7.818-13.211 14.783-.959 6.682 2.228 14.304 8.522 17.108.272.121 6.745 3.003 14.03 5.69 2.446.902 5.195 2.55 4.896 4.226-.269 1.505-2.446 3.73-6.268 3.73-4.104 0-8.034-1.633-10.513-4.369-2.865-3.162-7.75-3.403-10.913-.537-3.162 2.865-3.402 7.751-.537 10.913 5.439 6.003 13.445 9.446 21.964 9.446 10.743.001 19.776-6.925 21.48-16.467z"/><path d="m307.149 131.977c-4.186-.83-8.253 1.884-9.086 6.07l-3.931 19.755-6.349-20.607c-1.256-4.078-5.581-6.366-9.658-5.109-2.716.837-4.63 3.037-5.24 5.616l-6.223 20.106-3.924-19.838c-.827-4.186-4.89-6.904-9.079-6.08-4.186.828-6.908 4.893-6.08 9.079l9.079 45.898c.796 4.008 4.502 6.927 8.57 6.927h.059c3.734-.025 7.05-2.418 8.252-5.953.023-.067.045-.134.065-.202l6.791-21.94 6.76 21.944c1.122 3.652 4.569 6.151 8.375 6.151h.061c4.068 0 7.702-2.926 8.513-6.932l9.115-45.799c.833-4.185-1.884-8.253-6.07-9.086z"/><path d="m146.067 255.565c-.015 0-.03 0-.044 0-2.884.016-5.914.029-8.547.035v-38.867c0-4.267-3.459-7.726-7.726-7.726s-7.726 3.459-7.726 7.726v46.558c0 3.762 2.709 6.977 6.416 7.615.552.095 12.363.141 17.67.112 4.267-.024 7.707-3.503 7.683-7.77-.024-4.252-3.479-7.683-7.726-7.683z"/><path d="m189.919 224.673c4.267 0 7.726-3.459 7.726-7.726s-3.459-7.726-7.726-7.726h-19.455c-4.267 0-7.726 3.459-7.726 7.726v46.172c0 4.267 3.459 7.726 7.726 7.726h19.455c4.267 0 7.726-3.459 7.726-7.726s-3.459-7.726-7.726-7.726h-11.729v-7.633h10.294c4.267 0 7.726-3.459 7.726-7.726s-3.459-7.726-7.726-7.726h-10.294v-7.633h11.729z"/><path d="m333.024 224.673c4.267 0 7.726-3.459 7.726-7.726s-3.459-7.726-7.726-7.726h-19.455c-4.267 0-7.726 3.459-7.726 7.726v46.172c0 4.267 3.459 7.726 7.726 7.726h19.455c4.267 0 7.726-3.459 7.726-7.726s-3.459-7.726-7.726-7.726h-11.729v-7.633h10.294c4.267 0 7.726-3.459 7.726-7.726s-3.459-7.726-7.726-7.726h-10.294v-7.633h11.729z"/><path d="m239.558 209.007h-25.734c-4.267 0-7.726 3.459-7.726 7.726s3.459 7.726 7.726 7.726h5.089v38.871c0 4.267 3.459 7.726 7.726 7.726s7.726-3.459 7.726-7.726v-38.87h5.193c4.267 0 7.726-3.459 7.726-7.726s-3.459-7.727-7.726-7.727z"/><path d="m289.289 209.007h-25.734c-4.267 0-7.726 3.459-7.726 7.726s3.459 7.726 7.726 7.726h5.089v38.871c0 4.267 3.459 7.726 7.726 7.726s7.726-3.459 7.726-7.726v-38.87h5.193c4.267 0 7.726-3.459 7.726-7.726s-3.459-7.727-7.726-7.727z"/><path d="m378.03 246.841c7.04-3.147 11.947-10.021 11.947-17.998 0-10.938-9.206-19.837-20.522-19.837h-12.383c-.003 0-.005 0-.008 0s-.005 0-.008 0c-4.267 0-7.726 3.459-7.726 7.726v46.598c0 4.267 3.459 7.726 7.726 7.726s7.726-3.459 7.726-7.726v-8.151l11.667 13.256c2.828 3.213 7.712 3.504 10.904.695 3.203-2.819 3.515-7.701.695-10.904zm-8.575-22.381c2.7 0 5.069 2.048 5.069 4.384s-2.369 4.384-5.069 4.384c-1.125 0-2.827.006-4.613.014-.042-3.806.007-4.87-.021-8.781h4.634z"/></g><g><path d="m298.373 95.319-59.135-17.55v-29.141l59.135-17.55c2.641-.784 5.293 1.195 5.293 3.95v56.34c.001 2.756-2.651 4.735-5.293 3.951z" fill="#fee97d"/><path d="m298.374 31.078-25.612 7.601v49.038l25.612 7.601c2.641.784 5.293-1.195 5.293-3.95v-56.34c0-2.754-2.652-4.734-5.293-3.95z" fill="#f4da6e"/><g><path d="m226.233 112.248-7.497-38.305c-.819-4.188 1.91-8.247 6.099-9.066s8.246 1.91 9.066 6.099l7.497 38.305c.819 4.188-1.91 8.246-6.099 9.066-4.102.803-8.245-1.869-9.066-6.099z" fill="#fee97d"/></g><path d="m239.239 48.628v29.141h-16.335c-8.047 0-14.57-6.523-14.57-14.57 0-8.047 6.523-14.57 14.57-14.57h16.335z" fill="#00516a"/></g></g></g></svg>