<svg width="204" height="90" viewBox="0 0 204 90" fill="none" xmlns="http://www.w3.org/2000/svg">
<path d="M35.1825 17.288C36.3025 17.448 37.5025 17.704 38.7825 18.056C40.0945 18.376 41.3105 18.872 42.4305 19.544C43.5505 20.216 44.4785 21.08 45.2145 22.136C45.9825 23.16 46.3665 24.456 46.3665 26.024C46.3665 27.144 46.2065 28.136 45.8865 29C45.5665 29.864 45.1505 30.616 44.6385 31.256C44.1265 31.864 43.5345 32.392 42.8625 32.84C42.1905 33.256 41.5185 33.608 40.8465 33.896C39.2465 34.536 37.4225 34.904 35.3745 35H7.6785V34.616H12.4785V1.784H7.6785V1.4H33.0225C34.9105 1.496 36.6225 1.816 38.1585 2.36C38.7985 2.616 39.4225 2.92 40.0305 3.272C40.6385 3.624 41.1825 4.072 41.6625 4.616C42.1425 5.128 42.5265 5.736 42.8145 6.44C43.1345 7.144 43.2945 7.96 43.2945 8.888C43.2945 9.848 43.1025 10.712 42.7185 11.48C42.3345 12.248 41.8545 12.952 41.2785 13.592C40.7025 14.2 40.0785 14.728 39.4065 15.176C38.7345 15.624 38.0945 15.992 37.4865 16.28C36.8785 16.568 36.3505 16.792 35.9025 16.952C35.4865 17.08 35.2465 17.144 35.1825 17.144V17.288ZM23.4705 1.784V17.048H23.9985C25.6945 17.016 27.1985 16.728 28.5105 16.184C29.0865 15.96 29.6465 15.688 30.1905 15.368C30.7345 15.016 31.2145 14.584 31.6305 14.072C32.0785 13.56 32.4305 12.968 32.6865 12.296C32.9425 11.624 33.0705 10.84 33.0705 9.944V8.888C33.0705 7.128 32.7025 5.768 31.9665 4.808C31.2625 3.848 30.4785 3.144 29.6145 2.696C28.5905 2.184 27.4385 1.88 26.1585 1.784H23.4705ZM25.7745 34.616C27.4385 34.52 28.9105 34.168 30.1905 33.56C30.7345 33.304 31.2785 32.968 31.8225 32.552C32.3665 32.136 32.8465 31.624 33.2625 31.016C33.6785 30.408 34.0145 29.704 34.2705 28.904C34.5265 28.072 34.6545 27.112 34.6545 26.024C34.6545 24.616 34.4305 23.432 33.9825 22.472C33.5665 21.48 33.0385 20.664 32.3985 20.024C31.7585 19.384 31.0545 18.888 30.2865 18.536C29.5505 18.184 28.8465 17.928 28.1745 17.768C27.5345 17.608 26.9905 17.512 26.5425 17.48C26.0945 17.448 25.8545 17.432 25.8225 17.432H23.4705V34.616H25.7745ZM78.7418 35C76.9818 35 75.4778 34.744 74.2298 34.232C73.0138 33.688 71.9418 32.936 71.0138 31.976C70.1178 31.016 69.3338 29.864 68.6618 28.52C67.9898 27.144 67.3178 25.624 66.6458 23.96H56.0378L53.5418 32.744C53.5098 32.84 53.4938 32.952 53.4938 33.08C53.4938 33.176 53.4938 33.272 53.4938 33.368C53.4938 33.72 53.5898 34.024 53.7818 34.28C53.9738 34.504 54.2938 34.616 54.7418 34.616H57.2858V35H47.2537V34.616H49.9898C50.5978 34.616 51.1898 34.424 51.7658 34.04C52.3738 33.624 52.7738 33.08 52.9657 32.408L60.3098 8.168C59.9578 7.56 59.5418 6.888 59.0618 6.152C58.6138 5.384 58.1178 4.68 57.5738 4.04C57.0298 3.4 56.4698 2.872 55.8938 2.456C55.3177 2.008 54.7578 1.784 54.2138 1.784V1.4H62.9018C64.0858 1.4 65.1258 1.624 66.0218 2.072C66.9498 2.488 67.7498 3.032 68.4218 3.704C69.1258 4.344 69.7178 5.064 70.1978 5.864C70.6778 6.664 71.0618 7.416 71.3498 8.12C71.8298 9.272 72.3418 10.536 72.8858 11.912C73.4618 13.288 74.0538 14.728 74.6618 16.232C75.3018 17.704 75.9418 19.192 76.5817 20.696C77.2218 22.2 77.8298 23.64 78.4058 25.016C79.7818 28.28 81.1898 31.608 82.6298 35H78.7418ZM56.1818 23.576H66.4538L60.5978 8.984L56.1818 23.576ZM108.64 13.4C111.712 14.904 113.904 16.6 115.216 18.488C116.56 20.344 117.232 22.44 117.232 24.776C117.232 26.376 116.912 27.832 116.272 29.144C115.632 30.424 114.736 31.544 113.584 32.504C112.464 33.432 111.152 34.152 109.648 34.664C108.144 35.176 106.528 35.432 104.8 35.432H104.176C102.64 35.432 101.12 35.16 99.6158 34.616C98.1438 34.04 96.6398 33.304 95.1038 32.408C95.0078 32.344 94.8638 32.312 94.6718 32.312C94.3198 32.312 93.9838 32.456 93.6638 32.744C93.3438 33 93.0398 33.304 92.7518 33.656C92.3998 34.04 92.0798 34.488 91.7918 35H91.4078L90.4958 21.32H90.8798C90.9758 21.928 91.1038 22.584 91.2638 23.288C91.4238 23.896 91.6318 24.584 91.8878 25.352C92.1758 26.12 92.5758 26.92 93.0878 27.752C93.6318 28.68 94.2558 29.656 94.9598 30.68C95.6958 31.704 96.5438 32.504 97.5038 33.08C99.0078 33.976 100.544 34.568 102.112 34.856C102.592 34.952 103.12 35 103.696 35C104.336 35 104.992 34.968 105.664 34.904C106.368 34.84 106.992 34.696 107.536 34.472C108.304 34.12 108.88 33.72 109.264 33.272C109.648 32.792 109.84 31.992 109.84 30.872C109.84 30.072 109.488 29.272 108.784 28.472C108.08 27.672 107.152 26.872 106 26.072C104.848 25.24 103.536 24.392 102.064 23.528C100.592 22.664 99.0718 21.768 97.5038 20.84C94.9118 19.272 93.0238 17.544 91.8398 15.656C90.6878 13.768 90.1118 11.672 90.1118 9.368C90.1118 6.648 91.1838 4.616 93.3278 3.272C95.5038 1.896 98.6878 1.208 102.88 1.208C104.32 1.208 105.76 1.48 107.2 2.024C108.64 2.568 110.08 3.208 111.52 3.944C111.712 4.008 111.84 4.04 111.904 4.04C112.256 4.04 112.592 3.912 112.912 3.656C113.264 3.4 113.584 3.096 113.872 2.744C114.224 2.36 114.544 1.912 114.832 1.4H115.216L116.32 11.816H115.936C115.84 11.624 115.696 11.352 115.504 11C115.344 10.68 115.088 10.264 114.736 9.752C114.416 9.208 114 8.52 113.488 7.688C113.36 7.496 113.168 7.24 112.912 6.92C112.688 6.6 112.416 6.264 112.096 5.912C111.776 5.56 111.424 5.208 111.04 4.856C110.688 4.504 110.352 4.184 110.032 3.896C109.008 3.288 107.888 2.76 106.672 2.312C105.456 1.832 104.176 1.576 102.832 1.544C102.416 1.544 101.952 1.608 101.44 1.736C100.928 1.832 100.448 2.024 99.9998 2.312C99.5838 2.6 99.2158 2.984 98.8958 3.464C98.6078 3.912 98.4638 4.472 98.4638 5.144C98.4638 6.264 99.2478 7.48 100.816 8.792C102.416 10.104 105.024 11.64 108.64 13.4ZM150.214 30.584C150.854 29.688 151.35 28.856 151.702 28.088C152.054 27.32 152.31 26.6 152.47 25.928C152.63 25.256 152.71 24.616 152.71 24.008C152.742 23.4 152.758 22.808 152.758 22.232H153.19V35H150.214H142.246H138.214H127.174H122.902V34.616H127.174V1.784H122.902V1.4H127.174H138.214H141.526H152.47V12.584H152.038C152.038 11.88 152.022 11.24 151.99 10.664C151.958 10.088 151.862 9.528 151.702 8.984C151.574 8.44 151.366 7.88 151.078 7.304C150.79 6.696 150.39 6.024 149.878 5.288C149.302 4.456 148.71 3.8 148.102 3.32C147.494 2.84 146.838 2.488 146.134 2.264C145.462 2.04 144.726 1.912 143.926 1.88C143.158 1.816 142.342 1.784 141.478 1.784H138.214V17.528H140.278C140.854 17.528 141.382 17.512 141.862 17.48C142.342 17.448 142.79 17.368 143.206 17.24C143.654 17.08 144.054 16.856 144.406 16.568C144.758 16.28 145.11 15.88 145.462 15.368C146.006 14.568 146.438 13.768 146.758 12.968C147.078 12.168 147.238 11.288 147.238 10.328H147.526H147.622V25.112H147.526H147.238C147.238 24.184 147.078 23.32 146.758 22.52C146.47 21.72 146.038 20.904 145.462 20.072C144.822 19.144 144.086 18.552 143.254 18.296C142.422 18.04 141.43 17.912 140.278 17.912H138.214V34.616H142.246C143.142 34.616 143.926 34.6 144.598 34.568C145.27 34.504 145.91 34.36 146.518 34.136C147.126 33.88 147.718 33.48 148.294 32.936C148.87 32.392 149.51 31.608 150.214 30.584ZM177 1.4C180.68 1.368 183.992 1.928 186.936 3.08C188.184 3.56 189.4 4.216 190.584 5.048C191.768 5.848 192.824 6.872 193.752 8.12C194.68 9.336 195.432 10.808 196.008 12.536C196.584 14.232 196.872 16.216 196.872 18.488C196.872 20.728 196.584 22.68 196.008 24.344C195.432 26.008 194.664 27.448 193.704 28.664C192.776 29.848 191.704 30.824 190.488 31.592C189.304 32.36 188.088 32.984 186.84 33.464C183.896 34.552 180.568 35.064 176.856 35H174.84H163.992H159.192V34.616H163.992V1.784H159.192V1.4H163.992H174.84H177ZM185.736 16.904C185.736 14.952 185.608 13.24 185.352 11.768C185.096 10.296 184.76 9.016 184.344 7.928C183.96 6.84 183.496 5.944 182.952 5.24C182.44 4.504 181.912 3.912 181.368 3.464C180.088 2.408 178.632 1.848 177 1.784H174.84V34.616H176.856C178.52 34.488 179.992 33.864 181.272 32.744C181.816 32.264 182.36 31.672 182.904 30.968C183.448 30.232 183.928 29.336 184.344 28.28C184.76 27.192 185.096 25.928 185.352 24.488C185.608 23.016 185.736 21.336 185.736 19.448V16.904ZM0.838689 75.2C0.838689 74.464 0.998689 73.776 1.31869 73.136C1.63869 72.496 2.07069 71.936 2.61469 71.456C3.15869 70.976 3.78269 70.608 4.48669 70.352C5.22269 70.064 6.00669 69.92 6.83869 69.92C7.70269 69.92 8.50269 70.064 9.23869 70.352C10.0067 70.608 10.6627 70.976 11.2067 71.456C11.7827 71.936 12.2307 72.496 12.5507 73.136C12.8707 73.776 13.0307 74.464 13.0307 75.2C13.0307 75.936 12.8707 76.64 12.5507 77.312C12.2307 77.952 11.7827 78.512 11.2067 78.992C10.6627 79.472 10.0067 79.84 9.23869 80.096C8.50269 80.384 7.70269 80.528 6.83869 80.528C6.00669 80.528 5.22269 80.384 4.48669 80.096C3.78269 79.84 3.15869 79.472 2.61469 78.992C2.07069 78.512 1.63869 77.952 1.31869 77.312C0.998689 76.64 0.838689 75.936 0.838689 75.2ZM54.8162 79.616C54.8482 81.44 54.9922 83.056 55.2482 84.464C55.3442 85.072 55.4722 85.664 55.6322 86.24C55.8242 86.816 56.0322 87.328 56.2562 87.776C56.5122 88.256 56.8002 88.624 57.1202 88.88C57.4402 89.168 57.8242 89.312 58.2722 89.312C56.3842 89.312 54.7042 88.96 53.2322 88.256C51.7922 87.584 50.5442 86.688 49.4882 85.568C48.4642 84.448 47.6322 83.152 46.9922 81.68C46.3522 80.208 45.9042 78.688 45.6482 77.12C45.2962 77.856 44.6242 78.448 43.6322 78.896C42.6402 79.312 41.6162 79.632 40.5602 79.856C39.3122 80.144 37.9522 80.32 36.4802 80.384H34.5122C33.2642 80.384 32.1282 80.352 31.1042 80.288C30.0802 80.224 29.1362 80.096 28.2722 79.904C27.4082 79.712 26.5922 79.44 25.8242 79.088C25.0882 78.736 24.3682 78.272 23.6642 77.696C22.8002 77.024 22.0002 76.176 21.2642 75.152C20.5602 74.096 19.9362 72.944 19.3922 71.696C18.8802 70.416 18.4802 69.056 18.1922 67.616C17.9042 66.176 17.7602 64.704 17.7602 63.2C17.7602 61.696 17.9042 60.224 18.1922 58.784C18.4802 57.344 18.8802 56 19.3922 54.752C19.9362 53.472 20.5602 52.32 21.2642 51.296C22.0002 50.24 22.8002 49.376 23.6642 48.704C24.3682 48.128 25.0882 47.664 25.8242 47.312C26.5922 46.96 27.4082 46.688 28.2722 46.496C29.1362 46.304 30.0802 46.176 31.1042 46.112C32.1282 46.048 33.2642 46.016 34.5122 46.016H36.2402C37.3282 46.016 38.2722 46.128 39.0722 46.352C39.8722 46.576 40.5762 46.8 41.1842 47.024L42.7202 47.6C42.9762 47.696 43.2002 47.808 43.3922 47.936C43.6162 48.032 43.8402 48.128 44.0642 48.224C44.2882 48.32 44.5442 48.4 44.8322 48.464C45.1202 48.496 45.4882 48.512 45.9362 48.512C46.9602 48.512 47.7442 48.384 48.2882 48.128C48.8642 47.872 49.2802 47.6 49.5362 47.312C49.8242 46.992 49.9842 46.704 50.0162 46.448C50.0802 46.192 50.1122 46.048 50.1122 46.016H50.4962V59.744H50.1122C50.1122 59.104 49.8882 58.304 49.4402 57.344C48.9922 56.352 48.5122 55.392 48.0002 54.464C47.6162 53.76 47.1042 52.992 46.4642 52.16C45.8562 51.328 45.2322 50.64 44.5922 50.096C44.0482 49.648 43.4722 49.2 42.8642 48.752C42.2882 48.304 41.6162 47.904 40.8482 47.552C40.1122 47.2 39.2962 46.928 38.4002 46.736C37.5042 46.512 36.5122 46.4 35.4242 46.4H34.5122C34.1602 46.4 33.8722 46.448 33.6482 46.544C33.4562 46.64 33.1842 46.816 32.8322 47.072C32.1282 47.616 31.5842 48.496 31.2002 49.712C30.8162 50.896 30.5282 52.208 30.3362 53.648C30.1442 55.056 30.0322 56.496 30.0002 57.968C29.9682 59.44 29.9522 60.736 29.9522 61.856V64.544C29.9522 65.664 29.9682 66.96 30.0002 68.432C30.0322 69.904 30.1442 71.36 30.3362 72.8C30.5282 74.208 30.8162 75.52 31.2002 76.736C31.5842 77.92 32.1282 78.784 32.8322 79.328C33.1842 79.584 33.4562 79.76 33.6482 79.856C33.8722 79.952 34.1602 80 34.5122 80H36.4802C37.8882 79.808 39.1522 79.248 40.2722 78.32C40.7522 77.936 41.2162 77.456 41.6642 76.88C42.1442 76.272 42.5762 75.552 42.9602 74.72C43.3442 73.856 43.6482 72.864 43.8722 71.744C44.1282 70.624 44.2722 69.344 44.3042 67.904L43.9202 65.744C43.6642 65.168 43.3602 64.736 43.0082 64.448C42.6882 64.128 42.3682 63.888 42.0482 63.728C41.6962 63.568 41.3122 63.472 40.8962 63.44H35.3762V63.008H44.3042C46.2562 63.168 48.0002 63.856 49.5362 65.072C50.2082 65.584 50.8482 66.24 51.4562 67.04C52.0962 67.84 52.6562 68.832 53.1362 70.016C53.6482 71.168 54.0482 72.544 54.3362 74.144C54.6562 75.712 54.8162 77.536 54.8162 79.616ZM89.6124 49.088C89.6124 48.448 89.3884 47.904 88.9404 47.456C88.4924 47.008 87.9484 46.784 87.3084 46.784H84.8124V46.4H94.7964V46.784H92.3004C91.6604 46.784 91.1164 47.008 90.6684 47.456C90.2204 47.904 89.9964 48.448 89.9964 49.088V71.744C89.9964 72.8 89.7084 73.92 89.1324 75.104C88.5564 76.288 87.4684 77.424 85.8684 78.512C84.6524 79.344 83.3084 79.856 81.8364 80.048C80.3644 80.24 78.9084 80.336 77.4684 80.336C76.0284 80.336 74.6044 80.224 73.1964 80C71.7884 79.808 70.4124 79.424 69.0684 78.848C68.3964 78.528 67.7564 78.16 67.1484 77.744C66.5724 77.328 66.0604 76.816 65.6124 76.208C64.5564 74.864 64.0284 73.216 64.0284 71.264V46.784H59.2284V46.4H78.0444V46.784H75.0204V71.024C75.0204 72.048 75.1164 72.976 75.3084 73.808C75.5324 74.64 75.8684 75.312 76.3164 75.824C76.9884 76.624 77.7884 77.296 78.7164 77.84C79.6444 78.352 80.7004 78.608 81.8844 78.608C82.7484 78.608 83.5644 78.496 84.3324 78.272C85.0044 78.08 85.6604 77.76 86.3004 77.312C86.9404 76.832 87.5004 76.304 87.9804 75.728C88.4604 75.12 88.8444 74.48 89.1324 73.808C89.4204 73.104 89.5644 72.416 89.5644 71.744L89.6124 49.088ZM115.109 79.616H119.909V80H99.2694V79.616H104.117V46.784H99.2694V46.4H119.909V46.784H115.109V79.616ZM145.9 46.4C149.58 46.368 152.892 46.928 155.836 48.08C157.084 48.56 158.3 49.216 159.484 50.048C160.668 50.848 161.724 51.872 162.652 53.12C163.58 54.336 164.332 55.808 164.908 57.536C165.484 59.232 165.772 61.216 165.772 63.488C165.772 65.728 165.484 67.68 164.908 69.344C164.332 71.008 163.564 72.448 162.604 73.664C161.676 74.848 160.604 75.824 159.388 76.592C158.204 77.36 156.988 77.984 155.74 78.464C152.796 79.552 149.468 80.064 145.756 80H143.74H132.892H128.092V79.616H132.892V46.784H128.092V46.4H132.892H143.74H145.9ZM154.636 61.904C154.636 59.952 154.508 58.24 154.252 56.768C153.996 55.296 153.66 54.016 153.244 52.928C152.86 51.84 152.396 50.944 151.852 50.24C151.34 49.504 150.812 48.912 150.268 48.464C148.988 47.408 147.532 46.848 145.9 46.784H143.74V79.616H145.756C147.42 79.488 148.892 78.864 150.172 77.744C150.716 77.264 151.26 76.672 151.804 75.968C152.348 75.232 152.828 74.336 153.244 73.28C153.66 72.192 153.996 70.928 154.252 69.488C154.508 68.016 154.636 66.336 154.636 64.448V61.904ZM199.545 75.584C200.185 74.688 200.681 73.856 201.033 73.088C201.385 72.32 201.641 71.6 201.801 70.928C201.961 70.256 202.041 69.616 202.041 69.008C202.073 68.4 202.089 67.808 202.089 67.232H202.521V80H199.545H191.577H187.545H176.505H172.233V79.616H176.505V46.784H172.233V46.4H176.505H187.545H190.857H201.801V57.584H201.369C201.369 56.88 201.353 56.24 201.321 55.664C201.289 55.088 201.193 54.528 201.033 53.984C200.905 53.44 200.697 52.88 200.409 52.304C200.121 51.696 199.721 51.024 199.209 50.288C198.633 49.456 198.041 48.8 197.433 48.32C196.825 47.84 196.169 47.488 195.465 47.264C194.793 47.04 194.057 46.912 193.257 46.88C192.489 46.816 191.673 46.784 190.809 46.784H187.545V62.528H189.609C190.185 62.528 190.713 62.512 191.193 62.48C191.673 62.448 192.121 62.368 192.537 62.24C192.985 62.08 193.385 61.856 193.737 61.568C194.089 61.28 194.441 60.88 194.793 60.368C195.337 59.568 195.769 58.768 196.089 57.968C196.409 57.168 196.569 56.288 196.569 55.328H196.857H196.953V70.112H196.857H196.569C196.569 69.184 196.409 68.32 196.089 67.52C195.801 66.72 195.369 65.904 194.793 65.072C194.153 64.144 193.417 63.552 192.585 63.296C191.753 63.04 190.761 62.912 189.609 62.912H187.545V79.616H191.577C192.473 79.616 193.257 79.6 193.929 79.568C194.601 79.504 195.241 79.36 195.849 79.136C196.457 78.88 197.049 78.48 197.625 77.936C198.201 77.392 198.841 76.608 199.545 75.584Z" fill="#292423"/>
</svg>
