<svg width="400" height="46" viewBox="0 0 400 46" fill="none" xmlns="http://www.w3.org/2000/svg">
<path d="M29.7172 17.788C30.8372 17.948 32.0372 18.204 33.3172 18.556C34.6292 18.876 35.8452 19.372 36.9652 20.044C38.0852 20.716 39.0132 21.58 39.7492 22.636C40.5172 23.66 40.9012 24.956 40.9012 26.524C40.9012 27.644 40.7412 28.636 40.4212 29.5C40.1012 30.364 39.6852 31.116 39.1732 31.756C38.6612 32.364 38.0692 32.892 37.3972 33.34C36.7252 33.756 36.0532 34.108 35.3812 34.396C33.7812 35.036 31.9572 35.404 29.9092 35.5H2.21319V35.116H7.01319V2.284H2.21319V1.9H27.5572C29.4452 1.996 31.1572 2.316 32.6932 2.86C33.3332 3.116 33.9572 3.42 34.5652 3.772C35.1732 4.124 35.7172 4.572 36.1972 5.116C36.6772 5.628 37.0612 6.236 37.3492 6.94C37.6692 7.644 37.8292 8.46 37.8292 9.388C37.8292 10.348 37.6372 11.212 37.2532 11.98C36.8692 12.748 36.3892 13.452 35.8132 14.092C35.2372 14.7 34.6132 15.228 33.9412 15.676C33.2692 16.124 32.6292 16.492 32.0212 16.78C31.4132 17.068 30.8852 17.292 30.4372 17.452C30.0212 17.58 29.7812 17.644 29.7172 17.644V17.788ZM18.0052 2.284V17.548H18.5332C20.2292 17.516 21.7332 17.228 23.0452 16.684C23.6212 16.46 24.1812 16.188 24.7252 15.868C25.2692 15.516 25.7492 15.084 26.1652 14.572C26.6132 14.06 26.9652 13.468 27.2212 12.796C27.4772 12.124 27.6052 11.34 27.6052 10.444V9.388C27.6052 7.628 27.2372 6.268 26.5012 5.308C25.7972 4.348 25.0132 3.644 24.1492 3.196C23.1252 2.684 21.9732 2.38 20.6932 2.284H18.0052ZM20.3092 35.116C21.9732 35.02 23.4452 34.668 24.7252 34.06C25.2692 33.804 25.8132 33.468 26.3572 33.052C26.9012 32.636 27.3812 32.124 27.7972 31.516C28.2132 30.908 28.5492 30.204 28.8052 29.404C29.0612 28.572 29.1892 27.612 29.1892 26.524C29.1892 25.116 28.9652 23.932 28.5172 22.972C28.1012 21.98 27.5732 21.164 26.9332 20.524C26.2932 19.884 25.5892 19.388 24.8212 19.036C24.0852 18.684 23.3812 18.428 22.7092 18.268C22.0692 18.108 21.5252 18.012 21.0772 17.98C20.6292 17.948 20.3892 17.932 20.3572 17.932H18.0052V35.116H20.3092ZM73.2764 35.5C71.5164 35.5 70.0124 35.244 68.7644 34.732C67.5484 34.188 66.4764 33.436 65.5484 32.476C64.6524 31.516 63.8684 30.364 63.1964 29.02C62.5244 27.644 61.8524 26.124 61.1804 24.46H50.5724L48.0764 33.244C48.0444 33.34 48.0284 33.452 48.0284 33.58C48.0284 33.676 48.0284 33.772 48.0284 33.868C48.0284 34.22 48.1244 34.524 48.3164 34.78C48.5084 35.004 48.8284 35.116 49.2764 35.116H51.8204V35.5H41.7884V35.116H44.5244C45.1324 35.116 45.7244 34.924 46.3004 34.54C46.9084 34.124 47.3084 33.58 47.5004 32.908L54.8444 8.668C54.4924 8.06 54.0764 7.388 53.5964 6.652C53.1484 5.884 52.6524 5.18 52.1084 4.54C51.5644 3.9 51.0044 3.372 50.4284 2.956C49.8524 2.508 49.2924 2.284 48.7484 2.284V1.9H57.4364C58.6204 1.9 59.6604 2.124 60.5564 2.572C61.4844 2.988 62.2844 3.532 62.9564 4.204C63.6604 4.844 64.2524 5.564 64.7324 6.364C65.2124 7.164 65.5964 7.916 65.8844 8.62C66.3644 9.772 66.8764 11.036 67.4204 12.412C67.9964 13.788 68.5884 15.228 69.1964 16.732C69.8364 18.204 70.4764 19.692 71.1164 21.196C71.7564 22.7 72.3644 24.14 72.9404 25.516C74.3164 28.78 75.7244 32.108 77.1644 35.5H73.2764ZM50.7164 24.076H60.9884L55.1324 9.484L50.7164 24.076ZM103.174 13.9C106.246 15.404 108.438 17.1 109.75 18.988C111.094 20.844 111.766 22.94 111.766 25.276C111.766 26.876 111.446 28.332 110.806 29.644C110.166 30.924 109.27 32.044 108.118 33.004C106.998 33.932 105.686 34.652 104.182 35.164C102.678 35.676 101.062 35.932 99.3344 35.932H98.7104C97.1744 35.932 95.6544 35.66 94.1504 35.116C92.6784 34.54 91.1744 33.804 89.6384 32.908C89.5424 32.844 89.3984 32.812 89.2064 32.812C88.8544 32.812 88.5184 32.956 88.1984 33.244C87.8784 33.5 87.5744 33.804 87.2864 34.156C86.9344 34.54 86.6144 34.988 86.3264 35.5H85.9424L85.0304 21.82H85.4144C85.5104 22.428 85.6384 23.084 85.7984 23.788C85.9584 24.396 86.1664 25.084 86.4224 25.852C86.7104 26.62 87.1104 27.42 87.6224 28.252C88.1664 29.18 88.7904 30.156 89.4944 31.18C90.2304 32.204 91.0784 33.004 92.0384 33.58C93.5424 34.476 95.0784 35.068 96.6464 35.356C97.1264 35.452 97.6544 35.5 98.2304 35.5C98.8704 35.5 99.5264 35.468 100.198 35.404C100.902 35.34 101.526 35.196 102.07 34.972C102.838 34.62 103.414 34.22 103.798 33.772C104.182 33.292 104.374 32.492 104.374 31.372C104.374 30.572 104.022 29.772 103.318 28.972C102.614 28.172 101.686 27.372 100.534 26.572C99.3824 25.74 98.0704 24.892 96.5984 24.028C95.1264 23.164 93.6064 22.268 92.0384 21.34C89.4464 19.772 87.5584 18.044 86.3744 16.156C85.2224 14.268 84.6464 12.172 84.6464 9.868C84.6464 7.148 85.7184 5.116 87.8624 3.772C90.0384 2.396 93.2224 1.708 97.4144 1.708C98.8544 1.708 100.294 1.98 101.734 2.524C103.174 3.068 104.614 3.708 106.054 4.444C106.246 4.508 106.374 4.54 106.438 4.54C106.79 4.54 107.126 4.412 107.446 4.156C107.798 3.9 108.118 3.596 108.406 3.244C108.758 2.86 109.078 2.412 109.366 1.9H109.75L110.854 12.316H110.47C110.374 12.124 110.23 11.852 110.038 11.5C109.878 11.18 109.622 10.764 109.27 10.252C108.95 9.708 108.534 9.02 108.022 8.188C107.894 7.996 107.702 7.74 107.446 7.42C107.222 7.1 106.95 6.764 106.63 6.412C106.31 6.06 105.958 5.708 105.574 5.356C105.222 5.004 104.886 4.684 104.566 4.396C103.542 3.788 102.422 3.26 101.206 2.812C99.9904 2.332 98.7104 2.076 97.3664 2.044C96.9504 2.044 96.4864 2.108 95.9744 2.236C95.4624 2.332 94.9824 2.524 94.5344 2.812C94.1184 3.1 93.7504 3.484 93.4304 3.964C93.1424 4.412 92.9984 4.972 92.9984 5.644C92.9984 6.764 93.7824 7.98 95.3504 9.292C96.9504 10.604 99.5584 12.14 103.174 13.9ZM144.749 31.084C145.389 30.188 145.885 29.356 146.237 28.588C146.589 27.82 146.845 27.1 147.005 26.428C147.165 25.756 147.245 25.116 147.245 24.508C147.277 23.9 147.293 23.308 147.293 22.732H147.725V35.5H144.749H136.781H132.749H121.709H117.437V35.116H121.709V2.284H117.437V1.9H121.709H132.749H136.061H147.005V13.084H146.573C146.573 12.38 146.557 11.74 146.525 11.164C146.493 10.588 146.397 10.028 146.237 9.484C146.109 8.94 145.901 8.38 145.613 7.804C145.325 7.196 144.925 6.524 144.413 5.788C143.837 4.956 143.245 4.3 142.637 3.82C142.029 3.34 141.373 2.988 140.669 2.764C139.997 2.54 139.261 2.412 138.461 2.38C137.693 2.316 136.877 2.284 136.013 2.284H132.749V18.028H134.813C135.389 18.028 135.917 18.012 136.397 17.98C136.877 17.948 137.325 17.868 137.741 17.74C138.189 17.58 138.589 17.356 138.941 17.068C139.293 16.78 139.645 16.38 139.997 15.868C140.541 15.068 140.973 14.268 141.293 13.468C141.613 12.668 141.773 11.788 141.773 10.828H142.061H142.157V25.612H142.061H141.773C141.773 24.684 141.613 23.82 141.293 23.02C141.005 22.22 140.573 21.404 139.997 20.572C139.357 19.644 138.621 19.052 137.789 18.796C136.957 18.54 135.965 18.412 134.813 18.412H132.749V35.116H136.781C137.677 35.116 138.461 35.1 139.133 35.068C139.805 35.004 140.445 34.86 141.053 34.636C141.661 34.38 142.253 33.98 142.829 33.436C143.405 32.892 144.045 32.108 144.749 31.084ZM171.535 1.9C175.215 1.868 178.527 2.428 181.471 3.58C182.719 4.06 183.935 4.716 185.119 5.548C186.303 6.348 187.359 7.372 188.287 8.62C189.215 9.836 189.967 11.308 190.543 13.036C191.119 14.732 191.407 16.716 191.407 18.988C191.407 21.228 191.119 23.18 190.543 24.844C189.967 26.508 189.199 27.948 188.239 29.164C187.311 30.348 186.239 31.324 185.023 32.092C183.839 32.86 182.623 33.484 181.375 33.964C178.431 35.052 175.103 35.564 171.391 35.5H169.375H158.527H153.727V35.116H158.527V2.284H153.727V1.9H158.527H169.375H171.535ZM180.271 17.404C180.271 15.452 180.143 13.74 179.887 12.268C179.631 10.796 179.295 9.516 178.879 8.428C178.495 7.34 178.031 6.444 177.487 5.74C176.975 5.004 176.447 4.412 175.903 3.964C174.623 2.908 173.167 2.348 171.535 2.284H169.375V35.116H171.391C173.055 34.988 174.527 34.364 175.807 33.244C176.351 32.764 176.895 32.172 177.439 31.468C177.983 30.732 178.463 29.836 178.879 28.78C179.295 27.692 179.631 26.428 179.887 24.988C180.143 23.516 180.271 21.836 180.271 19.948V17.404ZM196.376 30.7C196.376 29.964 196.536 29.276 196.856 28.636C197.176 27.996 197.608 27.436 198.152 26.956C198.696 26.476 199.32 26.108 200.024 25.852C200.76 25.564 201.544 25.42 202.376 25.42C203.24 25.42 204.04 25.564 204.776 25.852C205.544 26.108 206.2 26.476 206.744 26.956C207.32 27.436 207.768 27.996 208.088 28.636C208.408 29.276 208.568 29.964 208.568 30.7C208.568 31.436 208.408 32.14 208.088 32.812C207.768 33.452 207.32 34.012 206.744 34.492C206.2 34.972 205.544 35.34 204.776 35.596C204.04 35.884 203.24 36.028 202.376 36.028C201.544 36.028 200.76 35.884 200.024 35.596C199.32 35.34 198.696 34.972 198.152 34.492C197.608 34.012 197.176 33.452 196.856 32.812C196.536 32.14 196.376 31.436 196.376 30.7ZM250.354 35.116C250.386 36.94 250.53 38.556 250.786 39.964C250.882 40.572 251.01 41.164 251.17 41.74C251.362 42.316 251.57 42.828 251.794 43.276C252.05 43.756 252.338 44.124 252.658 44.38C252.978 44.668 253.362 44.812 253.81 44.812C251.922 44.812 250.242 44.46 248.77 43.756C247.33 43.084 246.082 42.188 245.026 41.068C244.002 39.948 243.17 38.652 242.53 37.18C241.89 35.708 241.442 34.188 241.186 32.62C240.834 33.356 240.162 33.948 239.17 34.396C238.178 34.812 237.154 35.132 236.098 35.356C234.85 35.644 233.49 35.82 232.018 35.884H230.05C228.802 35.884 227.666 35.852 226.642 35.788C225.618 35.724 224.674 35.596 223.81 35.404C222.946 35.212 222.13 34.94 221.362 34.588C220.626 34.236 219.906 33.772 219.202 33.196C218.338 32.524 217.538 31.676 216.802 30.652C216.098 29.596 215.474 28.444 214.93 27.196C214.418 25.916 214.018 24.556 213.73 23.116C213.442 21.676 213.298 20.204 213.298 18.7C213.298 17.196 213.442 15.724 213.73 14.284C214.018 12.844 214.418 11.5 214.93 10.252C215.474 8.972 216.098 7.82 216.802 6.796C217.538 5.74 218.338 4.876 219.202 4.204C219.906 3.628 220.626 3.164 221.362 2.812C222.13 2.46 222.946 2.188 223.81 1.996C224.674 1.804 225.618 1.676 226.642 1.612C227.666 1.548 228.802 1.516 230.05 1.516H231.778C232.866 1.516 233.81 1.628 234.61 1.852C235.41 2.076 236.114 2.3 236.722 2.524L238.258 3.1C238.514 3.196 238.738 3.308 238.93 3.436C239.154 3.532 239.378 3.628 239.602 3.724C239.826 3.82 240.082 3.9 240.37 3.964C240.658 3.996 241.026 4.012 241.474 4.012C242.498 4.012 243.282 3.884 243.826 3.628C244.402 3.372 244.818 3.1 245.074 2.812C245.362 2.492 245.522 2.204 245.554 1.948C245.618 1.692 245.65 1.548 245.65 1.516H246.034V15.244H245.65C245.65 14.604 245.426 13.804 244.978 12.844C244.53 11.852 244.05 10.892 243.538 9.964C243.154 9.26 242.642 8.492 242.002 7.66C241.394 6.828 240.77 6.14 240.13 5.596C239.586 5.148 239.01 4.7 238.402 4.252C237.826 3.804 237.154 3.404 236.386 3.052C235.65 2.7 234.834 2.428 233.938 2.236C233.042 2.012 232.05 1.9 230.962 1.9H230.05C229.698 1.9 229.41 1.948 229.186 2.044C228.994 2.14 228.722 2.316 228.37 2.572C227.666 3.116 227.122 3.996 226.738 5.212C226.354 6.396 226.066 7.708 225.874 9.148C225.682 10.556 225.57 11.996 225.538 13.468C225.506 14.94 225.49 16.236 225.49 17.356V20.044C225.49 21.164 225.506 22.46 225.538 23.932C225.57 25.404 225.682 26.86 225.874 28.3C226.066 29.708 226.354 31.02 226.738 32.236C227.122 33.42 227.666 34.284 228.37 34.828C228.722 35.084 228.994 35.26 229.186 35.356C229.41 35.452 229.698 35.5 230.05 35.5H232.018C233.426 35.308 234.69 34.748 235.81 33.82C236.29 33.436 236.754 32.956 237.202 32.38C237.682 31.772 238.114 31.052 238.498 30.22C238.882 29.356 239.186 28.364 239.41 27.244C239.666 26.124 239.81 24.844 239.842 23.404L239.458 21.244C239.202 20.668 238.898 20.236 238.546 19.948C238.226 19.628 237.906 19.388 237.586 19.228C237.234 19.068 236.85 18.972 236.434 18.94H230.914V18.508H239.842C241.794 18.668 243.538 19.356 245.074 20.572C245.746 21.084 246.386 21.74 246.994 22.54C247.634 23.34 248.194 24.332 248.674 25.516C249.186 26.668 249.586 28.044 249.874 29.644C250.194 31.212 250.354 33.036 250.354 35.116ZM285.15 4.588C285.15 3.948 284.926 3.404 284.478 2.956C284.03 2.508 283.486 2.284 282.846 2.284H280.35V1.9H290.334V2.284H287.838C287.198 2.284 286.654 2.508 286.206 2.956C285.758 3.404 285.534 3.948 285.534 4.588V27.244C285.534 28.3 285.246 29.42 284.67 30.604C284.094 31.788 283.006 32.924 281.406 34.012C280.19 34.844 278.846 35.356 277.374 35.548C275.902 35.74 274.446 35.836 273.006 35.836C271.566 35.836 270.142 35.724 268.734 35.5C267.326 35.308 265.95 34.924 264.606 34.348C263.934 34.028 263.294 33.66 262.686 33.244C262.11 32.828 261.598 32.316 261.15 31.708C260.094 30.364 259.566 28.716 259.566 26.764V2.284H254.766V1.9H273.582V2.284H270.558V26.524C270.558 27.548 270.654 28.476 270.846 29.308C271.07 30.14 271.406 30.812 271.854 31.324C272.526 32.124 273.326 32.796 274.254 33.34C275.182 33.852 276.238 34.108 277.422 34.108C278.286 34.108 279.102 33.996 279.87 33.772C280.542 33.58 281.198 33.26 281.838 32.812C282.478 32.332 283.038 31.804 283.518 31.228C283.998 30.62 284.382 29.98 284.67 29.308C284.958 28.604 285.102 27.916 285.102 27.244L285.15 4.588ZM310.647 35.116H315.447V35.5H294.807V35.116H299.655V2.284H294.807V1.9H315.447V2.284H310.647V35.116ZM341.438 1.9C345.118 1.868 348.43 2.428 351.374 3.58C352.622 4.06 353.838 4.716 355.022 5.548C356.206 6.348 357.262 7.372 358.19 8.62C359.118 9.836 359.87 11.308 360.446 13.036C361.022 14.732 361.31 16.716 361.31 18.988C361.31 21.228 361.022 23.18 360.446 24.844C359.87 26.508 359.102 27.948 358.142 29.164C357.214 30.348 356.142 31.324 354.926 32.092C353.742 32.86 352.526 33.484 351.278 33.964C348.334 35.052 345.006 35.564 341.294 35.5H339.278H328.43H323.63V35.116H328.43V2.284H323.63V1.9H328.43H339.278H341.438ZM350.174 17.404C350.174 15.452 350.046 13.74 349.79 12.268C349.534 10.796 349.198 9.516 348.782 8.428C348.398 7.34 347.934 6.444 347.39 5.74C346.878 5.004 346.35 4.412 345.806 3.964C344.526 2.908 343.07 2.348 341.438 2.284H339.278V35.116H341.294C342.958 34.988 344.43 34.364 345.71 33.244C346.254 32.764 346.798 32.172 347.342 31.468C347.886 30.732 348.366 29.836 348.782 28.78C349.198 27.692 349.534 26.428 349.79 24.988C350.046 23.516 350.174 21.836 350.174 19.948V17.404ZM395.082 31.084C395.722 30.188 396.218 29.356 396.57 28.588C396.922 27.82 397.178 27.1 397.338 26.428C397.498 25.756 397.578 25.116 397.578 24.508C397.61 23.9 397.626 23.308 397.626 22.732H398.058V35.5H395.082H387.114H383.082H372.042H367.77V35.116H372.042V2.284H367.77V1.9H372.042H383.082H386.394H397.338V13.084H396.906C396.906 12.38 396.89 11.74 396.858 11.164C396.826 10.588 396.73 10.028 396.57 9.484C396.442 8.94 396.234 8.38 395.946 7.804C395.658 7.196 395.258 6.524 394.746 5.788C394.17 4.956 393.578 4.3 392.97 3.82C392.362 3.34 391.706 2.988 391.002 2.764C390.33 2.54 389.594 2.412 388.794 2.38C388.026 2.316 387.21 2.284 386.346 2.284H383.082V18.028H385.146C385.722 18.028 386.25 18.012 386.73 17.98C387.21 17.948 387.658 17.868 388.074 17.74C388.522 17.58 388.922 17.356 389.274 17.068C389.626 16.78 389.978 16.38 390.33 15.868C390.874 15.068 391.306 14.268 391.626 13.468C391.946 12.668 392.106 11.788 392.106 10.828H392.394H392.49V25.612H392.394H392.106C392.106 24.684 391.946 23.82 391.626 23.02C391.338 22.22 390.906 21.404 390.33 20.572C389.69 19.644 388.954 19.052 388.122 18.796C387.29 18.54 386.298 18.412 385.146 18.412H383.082V35.116H387.114C388.01 35.116 388.794 35.1 389.466 35.068C390.138 35.004 390.778 34.86 391.386 34.636C391.994 34.38 392.586 33.98 393.162 33.436C393.738 32.892 394.378 32.108 395.082 31.084Z" fill="#292423"/>
</svg>
