<svg id="Layer_1" height="512" viewBox="0 0 175.4414 229.6739" width="512" xmlns="http://www.w3.org/2000/svg"><g><path d="m157.5823 18.3136 15.7681-3.769c1.4575-.3481 2.3647-1.8257 2.0166-3.2832s-1.8257-2.3652-3.2837-2.0166l-23.7705 5.6812c-.2036.0488-.3931.1235-.5732.2134l-81.1163 19.5203c-3.1826 5.6533-8.5542 10.0664-15.3101 11.8369-2.0645.541-4.1846.8154-6.3008.8154-3.4038 0-6.6753-.7061-9.6685-1.979-22.3387 13.4093-33.9442 36.8985-34.5458 38.1412-1.4385 2.9746-.9004 6.5283 1.3545 8.9434l26.7744 28.6758c1.105 1.1831 2.4868 1.9468 3.9512 2.3027-1.7729 27.1445-9.0815 58.6582-29.6514 84.2358-4.3262 5.3794-3.4717 13.248 1.9072 17.5742 2.3096 1.8574 5.0771 2.7598 7.8262 2.7598 3.6553 0 7.2793-1.5962 9.749-4.667 23.4902-29.209 32.4048-64.0044 34.9165-94.2612 3.439.4922 6.9199.9111 10.1992 1.2329 3.1978 29.6948 3.647 61.3345-4.2144 82.5581-2.3984 6.4736.9062 13.6655 7.3799 16.0635 1.4316.5303 2.8984.7817 4.3398.7817 5.0801 0 9.8564-3.1196 11.7236-8.1616 19.6328-53.0015-3.3271-152.5752-8.4653-173.2744l78.4175-18.8711c2.6232-.6314 2.2443-6.6758.5763-11.0532zm-139.7363 67.4672c2.4575-4 6.5957-10.0205 12.272-15.8662 1.1958 7.0527 2.7334 18.5044 3.1294 32.3608z"/><path d="m50.7298 44.2716c12.0195-3.1499 19.2119-15.4478 16.0635-27.4697-3.1504-12.0196-15.4502-19.2115-27.4698-16.0616-12.0214 3.1509-19.2119 15.4463-16.0615 27.4678 3.1484 12.022 15.4458 19.2124 27.4678 16.0635zm9.4565-20.5503.6353 2.9316c-9.5508 2.0688-18.3262 5.4023-18.7822 7.1357l-2.9009-.7632c1.1943-4.5434 15.1177-8.0204 21.0478-9.3041z"/></g></svg>