<svg id="Layer_1" viewBox="0 0 64 64" xmlns="http://www.w3.org/2000/svg" data-name="Layer 1"><g fill="rgb(0,0,0)"><path d="m32 64c-17.65 0-32-14.36-32-32 0-6.87 2.14-13.41 6.19-18.92.33-.44.95-.54 1.4-.21.44.33.54.95.21 1.4-3.8 5.17-5.81 11.3-5.81 17.74 0 16.54 13.46 30 30 30s30-13.46 30-30c0-6.73-2.18-13.09-6.29-18.39-.34-.44-.26-1.06.18-1.4s1.06-.26 1.4.18c4.39 5.65 6.71 12.44 6.71 19.61 0 17.64-14.35 32-32 32z"/><path d="m18 5.33c-.36 0-.72-.2-.89-.55-.25-.49-.05-1.09.44-1.34 4.5-2.28 9.37-3.44 14.45-3.44s9.95 1.16 14.45 3.44c.49.25.69.85.44 1.34s-.85.69-1.34.44c-4.22-2.14-8.78-3.23-13.55-3.23s-9.33 1.08-13.55 3.23c-.14.07-.3.11-.45.11z"/><path d="m16.67 27c-.21 0-.42-.07-.6-.2l-2.27-1.7c-.5-.38-.8-.97-.8-1.6v-3.5c0-1.1.9-2 2-2h3.68l6.32-4.51v-.76l-1.63-.54c-.82-.27-1.37-1.03-1.37-1.9v-4.74l-1.55-1.04c-.46-.31-.58-.93-.28-1.39.31-.46.93-.58 1.39-.28l1.55 1.04c.56.37.89.99.89 1.66v4.74l1.63.54c.82.27 1.37 1.03 1.37 1.9v.76c0 .65-.31 1.25-.84 1.63l-6.32 4.51c-.34.24-.74.37-1.16.37h-3.68v3.5l2.27 1.7c.44.33.53.96.2 1.4-.2.26-.5.4-.8.4z"/><path d="m22.32 58h-1.32c-1.1 0-2-.9-2-2v-3.76l-1.79-3.58c-.14-.28-.21-.59-.21-.89v-6.15l-6.89-3.45c-.68-.34-1.11-1.03-1.11-1.79v-3.76c0-.76.42-1.45 1.11-1.79l.89-.45v-.9l-4.25-3.4c-.48-.38-.75-.95-.75-1.56v-4.11l-1.71-1.71c-.39-.39-.39-1.02 0-1.41s1.02-.39 1.41 0l1.71 1.71c.37.37.59.89.59 1.41v4.11l4.25 3.4c.48.38.75.95.75 1.56v.9c0 .76-.42 1.45-1.11 1.79l-.89.45v3.76l6.89 3.45c.68.34 1.11 1.03 1.11 1.79v6.15l1.79 3.58c.14.28.21.59.21.89v3.76h1.32l1.7-4.25c.06-.16.15-.32.26-.46l2.74-3.66.16-2.47c.04-.54.3-1.06.72-1.41l5.1-4.24v-3.53h-4c-1.1 0-2-.9-2-2 0-.55.45-1 1-1s1 .45 1 1h4c1.1 0 2 .9 2 2v3.53c0 .6-.26 1.16-.72 1.54l-5.1 4.23-.16 2.47c-.03.39-.16.76-.4 1.07l-2.74 3.66-1.7 4.25c-.31.76-1.03 1.26-1.86 1.26z"/><path d="m55.4 50.8-3.6-2.7c-.5-.38-.8-.97-.8-1.6v-5.15l-3.56-4.45c-.28-.35-.44-.8-.44-1.25v-4.24c0-.53.21-1.04.59-1.41l1.49-1.49c.28-.28.63-.47 1.02-.55l3.9-.78v-.77c0-.53.21-1.04.59-1.41l1.41-1.41v-1.59h-1.76l-1.34.67c-.56.28-1.23.28-1.79 0l-3.34-1.67h-6.76c-1.1 0-2-.9-2-2v-1.5c0-.63.3-1.23.8-1.6l2.19-1.63v-1.86c0-.38.11-.76.32-1.08l1.54-2.39-.56-1.12c-.24-.48-.28-1.02-.11-1.53l.87-2.61 1.9.63-.87 2.61.56 1.12c.31.63.27 1.38-.11 1.98l-1.54 2.39v1.86c0 .63-.3 1.23-.8 1.6l-2.19 1.63v1.5h6.76c.31 0 .62.07.89.21l3.34 1.67 1.34-.67c.28-.14.59-.21.89-.21h1.76c1.1 0 2 .9 2 2v1.59c0 .53-.21 1.04-.59 1.41l-1.41 1.41v.77c0 .95-.68 1.77-1.61 1.96l-3.9.78-1.49 1.49v4.24l3.56 4.45c.28.35.44.8.44 1.25v5.15l3.6 2.7-1.2 1.6z"/><g><path d="m11 12c-2.76 0-5-2.24-5-5s2.24-5 5-5 5 2.24 5 5-2.24 5-5 5zm0-8c-1.65 0-3 1.35-3 3s1.35 3 3 3 3-1.35 3-3-1.35-3-3-3z"/><path d="m11 20c-.55 0-1-.45-1-1v-8c0-.55.45-1 1-1s1 .45 1 1v8c0 .55-.45 1-1 1z"/></g><g><path d="m53 10c-2.76 0-5-2.24-5-5s2.24-5 5-5 5 2.24 5 5-2.24 5-5 5zm0-8c-1.65 0-3 1.35-3 3s1.35 3 3 3 3-1.35 3-3-1.35-3-3-3z"/><path d="m53 18c-.55 0-1-.45-1-1v-8c0-.55.45-1 1-1s1 .45 1 1v8c0 .55-.45 1-1 1z"/></g><g><path d="m24 33c-2.76 0-5-2.24-5-5s2.24-5 5-5 5 2.24 5 5-2.24 5-5 5zm0-8c-1.65 0-3 1.35-3 3s1.35 3 3 3 3-1.35 3-3-1.35-3-3-3z"/><path d="m24 41c-.55 0-1-.45-1-1v-8c0-.55.45-1 1-1s1 .45 1 1v8c0 .55-.45 1-1 1z"/></g></g></svg>