<svg id="icon" height="512" viewBox="0 0 340 340" width="512" xmlns="http://www.w3.org/2000/svg"><path d="m105.871 163.859c-10.742-7.9-23.394-11.538-23.921-11.709a3.352 3.352 0 0 0 -4.458 3.366v27.284a3.5 3.5 0 0 0 2.508 3.35 81.466 81.466 0 0 1 21.738 10.5c3.006 1.558 5.561-.512 5.561-2.828v-27.144a3.5 3.5 0 0 0 -1.428-2.819z"/><path d="m80.219 83.86c1.088.246 3.838.91 4.134.91a3.5 3.5 0 0 0 .89-6.885q-1.726-.455-3.478-.852a3.5 3.5 0 0 0 -1.546 6.827z"/><path d="m107.075 86.12a3.5 3.5 0 1 0 -2.839 6.4c22.528 9.993 38.595 27.354 38.754 27.527a4.127 4.127 0 0 0 4.945.218 3.411 3.411 0 0 0 .219-4.943c-.689-.756-17.169-18.596-41.079-29.202z"/><path d="m80.219 109.714c35.23 7.981 62.544 35.988 62.833 36.252a3.445 3.445 0 0 0 4.948.09 3.6 3.6 0 0 0 .092-4.948c-1.166-1.211-29.009-29.767-66.326-38.221a3.5 3.5 0 1 0 -1.547 6.827z"/><path d="m81.766 128.742a3.5 3.5 0 1 0 -1.547 6.827c35.23 7.981 62.561 35.97 62.833 36.252a3.99 3.99 0 0 0 4.948.09 3.421 3.421 0 0 0 .092-4.948c-1.166-1.211-29.009-29.763-66.326-38.221z"/><path d="m122.73 172.577a3.5 3.5 0 0 0 -3.4 6.118c12.46 6.929 23.568 18.813 23.678 18.932.69.743 3.26 1.675 4.946.184a3.47 3.47 0 0 0 .186-4.945c-.484-.519-11.956-12.808-25.41-20.289z"/><path d="m122.729 198.432a3.5 3.5 0 0 0 -3.4 6.118c12.46 6.928 23.568 18.813 23.678 18.932.69.743 3.309 1.675 4.946.184a3.488 3.488 0 0 0 .186-4.945c-.483-.521-11.955-12.808-25.41-20.289z"/><path d="m204.131 55.04a3.721 3.721 0 1 0 3.721 3.721 3.721 3.721 0 0 0 -3.721-3.721z"/><path d="m249.239 60.6a3.721 3.721 0 1 0 3.721 3.721 3.721 3.721 0 0 0 -3.721-3.721z"/><path d="m294.346 55.04a3.721 3.721 0 1 0 3.721 3.721 3.721 3.721 0 0 0 -3.721-3.721z"/><path d="m331.105 110.919a166.618 166.618 0 0 0 -23.268-9.516 3.5 3.5 0 1 0 -2.131 6.674 159.443 159.443 0 0 1 20.316 8.143v178.713c-40.335-18.506-80.194-17.316-106.982-12.868a219.831 219.831 0 0 0 -27.85 6.513h.01c-13.694 1.58-12.9-8.953-12.9-8.953v-153c0-11.284 6.683-15.039 6.73-15.065 2.737-.963 5.825-1.983 9.239-3a3.665 3.665 0 0 0 2.646-2.978 3.517 3.517 0 0 0 -4.494-3.8 184.787 184.787 0 0 0 -21.4 7.73c-3.269-5.58-11.576-18.139-26.667-31.257-18.243-15.858-50.286-35.5-99.343-39.034a3.483 3.483 0 0 0 -3.757 3.479v56c-5.922 1.635-20.582 6.013-32.444 12.261a3.47 3.47 0 0 0 -1.832 3.077v215.85a3.586 3.586 0 0 0 4.456 3.491c83.561-23.723 146.747-3.639 155.722-.5a7.13 7.13 0 0 0 2.343.4h.037a7.129 7.129 0 0 0 2.343-.391c9.072-3.131 73.091-23.239 156.687.493 2.867.533 4.456-.931 4.456-3.469v-215.871a3.494 3.494 0 0 0 -1.917-3.122zm-165.083 214.191a222.731 222.731 0 0 0 -41.051-8.388 298.8 298.8 0 0 0 -110.993 8.694v-7.487c67.98-29.651 141.1-4.207 152.044-.072zm0-14.728a242.19 242.19 0 0 0 -46.908-11.337c-26.77-3.788-66.374-4.785-105.136 11.269v-7.656c39.622-19.158 78.936-18.079 105.122-13.727a197.018 197.018 0 0 1 46.924 13.775zm0-22.4c-4.548-6.351-36.4-56.488-117.768-62.39v-179.092c44.848 4.076 74.293 22.145 91.24 36.8 16.681 14.428 24.8 28.41 26.528 31.605zm160 37.434a306.251 306.251 0 0 0 -79.2-10.506c-34.751 0-66.817 8.024-73.8 10.218v-7.189c10.3-3.885 84.571-29.854 153-.01zm0-15.1c-38.773-16.054-78.574-15.059-105.509-11.271a245.456 245.456 0 0 0 -47.491 11.424v-7.749c12.5-5.553 83.087-33.867 153-.061z"/><path d="m326.013 59.858a10.554 10.554 0 0 0 -6.578-9.975 224.032 224.032 0 0 0 -26-8.936c-2.45-7.755-13.143-34.435-44.2-34.435s-41.747 26.68-44.2 34.435a224.032 224.032 0 0 0 -26 8.936 10.739 10.739 0 0 0 .156 19.865c8.355 3.353 20.969 7.129 38.629 9.311l-15.731 117.891a20.366 20.366 0 0 0 11.163 21c15.316 7.546 35.112 7.85 36.025 7.859.835-.009 20.631-.313 35.949-7.859a20.366 20.366 0 0 0 11.162-21l-15.738-117.891c17.66-2.182 30.274-5.958 38.629-9.311a10.567 10.567 0 0 0 6.734-9.89zm-76.775-46.346s21.578 2.512 23.686 33.153a136.984 136.984 0 0 1 -23.689 2.39c-.337 0-24.536-.072-37.265-6.845 2.419-7.273 11.721-28.698 37.268-28.698zm-32.892 198.157a13.374 13.374 0 0 1 -7.32-13.793l14.3-107.144 26.979 4.123a20.889 20.889 0 0 1 17.519 17.658l12.016 83.017s2.751 15.858-7.515 19.814a101.573 101.573 0 0 1 -23.051 3.464c-.184-.003-19.061-.308-32.928-7.139zm100.326-148.417c-12.085 4.85-33.6 10.631-67.434 10.631s-55.347-5.783-67.432-10.631a3.74 3.74 0 0 1 -.061-6.912 219.738 219.738 0 0 1 25.533-8.74c14.05 8.34 40.518 8.46 41.937 8.46h.041c1.427 0 27.9-.12 41.944-8.46a219.259 219.259 0 0 1 25.531 8.745 3.74 3.74 0 0 1 -.059 6.912z"/></svg>