<svg id="Capa_1" enable-background="new 0 0 512 512" height="512" viewBox="0 0 512 512" width="512" xmlns="http://www.w3.org/2000/svg"><g><path d="m406 421h45v30h-45z" fill="#d5e8fe"/><g><path d="m406 361h45v30h-45z" fill="#d5e8fe"/></g><g><path d="m316 421h-150c-41.353 0-75-33.647-75-75h30c0 24.814 20.186 45 45 45h150z" fill="#5a344b"/></g><path d="m151 181h90v90h-90z" fill="#5a344b"/><g><path d="m512 78.399v55.2l-103.599 17.101v-89.4z" fill="#edf5ff"/></g><path d="m512 106v27.599l-103.599 17.101v-44.7z" fill="#d5e8fe"/><path d="m172.592 331c-9.466 0-16.553-8.651-14.707-17.944l22.822-114.111-89.707-4.424-31 16.479-22.529 96.167c-5.596 27.854 15.75 53.833 44.121 53.833h99.408v-30z" fill="#704c55"/><path d="m0 61h301v90h-301z" fill="#edf5ff"/><path d="m0 106h301v45h-301z" fill="#d5e8fe"/><g><g><path d="m247.899 31-50.099 75-9.901 15h-36.899v-90h-91v180h361v-180z" fill="#ff641a"/></g></g><path d="m421 106v105h-361v-105h91v15h36.899l9.901-15z" fill="#f03800"/><g><path d="m331 91h30v60h-30z" fill="#f03800"/></g><g><path d="m271 91h30v60h-30z" fill="#f03800"/></g><g><path d="m421 481h-45c-41.353 0-75-33.647-75-75s33.647-75 75-75h45z" fill="#f03800"/></g><g fill="#cd0000"><path d="m271 106h30v45h-30z"/><path d="m331 106h30v45h-30z"/></g></g></svg>