<svg clip-rule="evenodd" fill-rule="evenodd" height="512" image-rendering="optimizeQuality" shape-rendering="geometricPrecision" text-rendering="geometricPrecision" viewBox="0 0 1707 1707" width="512" xmlns="http://www.w3.org/2000/svg"><g id="Layer_x0020_1"><path d="m853 1384c-5 0-10-1-15-4l-824-501c-19-12-19-40 0-51l824-501c20-12 45 2 45 25v221h794c16 0 30 13 30 30v501c0 16-14 30-30 30h-794v220c0 17-13 30-30 30zm-765-531 735 448v-197c0-17 14-30 30-30h794v-441h-794c-16 0-30-14-30-30v-197z" fill-rule="nonzero"/></g></svg>